<svg width="231" height="59" viewBox="0 0 231 59" fill="none" xmlns="http://www.w3.org/2000/svg">
<g clip-path="url(#clip0_24_1023)">
<path d="M47.0005 23.4523C47.0648 23.3536 47.1015 23.2389 47.1068 23.1206C47.112 23.0023 47.0856 22.8847 47.0304 22.7805C46.9752 22.6763 46.8932 22.5893 46.7932 22.5289C46.6933 22.4685 46.5791 22.4369 46.4629 22.4375H30.7588C30.6529 22.4374 30.5487 22.4106 30.4555 22.3594C30.3622 22.3083 30.2829 22.2344 30.2245 22.1443C30.1661 22.0543 30.1305 21.9509 30.1209 21.8434C30.1113 21.7359 30.128 21.6277 30.1694 21.5284L38.7562 0.925442C38.7978 0.825804 38.8144 0.717201 38.8046 0.609392C38.7948 0.501583 38.7589 0.397947 38.7 0.307798C38.6412 0.217648 38.5613 0.143811 38.4675 0.092922C38.3737 0.0420329 38.269 0.0156866 38.1628 0.0162508H20.9254C20.7806 0.0152344 20.6397 0.0645321 20.5261 0.15602C20.4124 0.247509 20.3327 0.375729 20.3001 0.519553L13.1789 32.873C13.1553 32.9695 13.1536 33.0704 13.174 33.1677C13.1944 33.2651 13.2364 33.3564 13.2967 33.4348C13.357 33.5131 13.4341 33.5763 13.5221 33.6196C13.61 33.663 13.7065 33.6852 13.8042 33.6847H27.8952C27.9929 33.6842 28.0895 33.7065 28.1774 33.7498C28.2654 33.7931 28.3425 33.8564 28.4028 33.9347C28.4631 34.013 28.5051 34.1043 28.5255 34.2017C28.5459 34.2991 28.5442 34.3999 28.5205 34.4965L23.3788 58.241C23.3476 58.39 23.3685 58.5455 23.4379 58.6805C23.5073 58.8154 23.6208 58.9215 23.7587 58.9802C23.8967 59.039 24.0505 59.0467 24.1934 59.0022C24.3364 58.9576 24.4596 58.8635 24.5418 58.7362L47.0005 23.4523Z" fill="#1E9646"/>
<path d="M14.5049 1.39012e-05H0.640935C0.507005 -0.000876149 0.376163 0.0409946 0.266773 0.11975C0.157384 0.198505 0.0749374 0.31019 0.0310059 0.439131C-0.0129256 0.568072 -0.0161371 0.707797 0.0218225 0.838692C0.0597821 0.969588 0.137007 1.08509 0.242659 1.16897L12.2945 9.48158C12.3795 9.54828 12.4796 9.59218 12.5856 9.60924C12.6916 9.6263 12.8001 9.61598 12.9012 9.57922C13.0022 9.54247 13.0926 9.48045 13.1641 9.39886C13.2355 9.31727 13.2857 9.21871 13.3101 9.11222L15.1222 0.795556C15.143 0.700729 15.1427 0.602383 15.1214 0.507678C15.1002 0.412973 15.0585 0.324291 14.9993 0.248087C14.9402 0.171883 14.8651 0.110075 14.7796 0.0671617C14.6941 0.0242481 14.6002 0.00130912 14.5049 1.39012e-05Z" fill="#1E9646"/>
<path d="M75.0431 43.3855C74.6538 43.3772 74.2827 43.2159 74.0073 42.9352C73.7319 42.6546 73.5737 42.2764 73.5655 41.8796V24.8323L79.683 32.9501V41.8796C79.6847 42.0752 79.6483 42.2693 79.5758 42.4504C79.5033 42.6316 79.3963 42.7963 79.2609 42.9349C79.1262 43.0818 78.9625 43.198 78.7806 43.2756C78.5987 43.3533 78.4026 43.3907 78.2054 43.3855H75.0431Z" fill="#1E9646"/>
<path d="M99.1548 43.3854C98.957 43.3903 98.7605 43.3527 98.578 43.275C98.3955 43.1974 98.231 43.0815 98.0953 42.9349C97.8233 42.6538 97.6715 42.2744 97.6732 41.8796V22.6161L89.9546 32.7633C89.8112 32.9441 89.6287 33.0888 89.4215 33.1859C89.2142 33.2831 88.9878 33.3301 88.7598 33.3235C88.5259 33.3427 88.2913 33.297 88.081 33.1912C87.8706 33.0854 87.6923 32.9235 87.5649 32.7227L73.8762 14.2304C73.6762 13.991 73.5711 13.6842 73.5815 13.37C73.5779 13.1662 73.6153 12.9639 73.6913 12.7754C73.7673 12.587 73.8804 12.4163 74.0235 12.2741C74.157 12.1311 74.3176 12.0174 74.4957 11.9399C74.6737 11.8624 74.8655 11.8228 75.0591 11.8235H78.7272C78.9591 11.8183 79.1888 11.8702 79.3968 11.9748C79.6048 12.0794 79.785 12.2336 79.922 12.4242L88.7836 24.3777L97.4342 12.4242C97.5761 12.2318 97.7611 12.0769 97.9739 11.9723C98.1866 11.8678 98.4208 11.8168 98.6569 11.8235H102.329C102.717 11.8337 103.086 11.9951 103.361 12.2745C103.636 12.5538 103.796 12.9299 103.807 13.3253V41.8796C103.797 42.2757 103.638 42.6528 103.363 42.933C103.088 43.2132 102.718 43.3752 102.329 43.3854H99.1548Z" fill="#1E9646"/>
<path d="M112.879 17.9281C112.701 17.9276 112.524 17.8891 112.361 17.815C112.198 17.7409 112.051 17.6329 111.931 17.4979C111.801 17.3614 111.699 17.2 111.631 17.0231C111.563 16.8461 111.529 16.6571 111.533 16.4669V13.3253C111.527 12.9356 111.67 12.5587 111.931 12.2741C112.049 12.1343 112.194 12.0218 112.357 11.9441C112.521 11.8663 112.699 11.8252 112.879 11.8235H133.008C133.196 11.8205 133.381 11.8609 133.551 11.9418C133.721 12.0226 133.87 12.1418 133.988 12.2903C134.248 12.5759 134.39 12.9521 134.386 13.3416V16.4831C134.392 16.8669 134.249 17.2375 133.988 17.5141C133.867 17.6526 133.719 17.7629 133.552 17.8372C133.386 17.9114 133.206 17.948 133.024 17.9443L112.879 17.9281Z" fill="#1E9646"/>
<path d="M112.692 30.6974C112.534 30.6901 112.38 30.6456 112.242 30.5674C112.104 30.4892 111.985 30.3795 111.896 30.2468C111.664 29.948 111.54 29.5767 111.545 29.1956V25.9728C111.539 25.5904 111.663 25.2176 111.896 24.9175C111.985 24.7848 112.104 24.6751 112.242 24.597C112.38 24.5188 112.534 24.4743 112.692 24.467H128.313C128.486 24.4665 128.657 24.5069 128.812 24.5851C128.968 24.6633 129.104 24.777 129.209 24.9175C129.453 25.2121 129.583 25.5873 129.575 25.9728V29.1956C129.582 29.5797 129.452 29.9533 129.209 30.2468C129.104 30.3873 128.968 30.5011 128.812 30.5793C128.657 30.6574 128.486 30.6979 128.313 30.6974H112.692Z" fill="#1E9646"/>
<path d="M112.879 43.3854C112.699 43.3837 112.521 43.3426 112.357 43.2649C112.194 43.1872 112.049 43.0746 111.931 42.9349C111.67 42.6485 111.528 42.2705 111.533 41.8796V38.7421C111.529 38.5513 111.563 38.3617 111.631 38.1841C111.699 38.0065 111.801 37.8443 111.931 37.707C112.052 37.5733 112.199 37.4662 112.362 37.3922C112.525 37.3182 112.701 37.279 112.879 37.2768H133.008C133.19 37.275 133.369 37.3124 133.535 37.3865C133.702 37.4607 133.85 37.5699 133.972 37.707C134.233 37.9853 134.376 38.3571 134.37 38.7421V41.8796C134.374 42.2702 134.232 42.6476 133.972 42.9349C133.854 43.0782 133.707 43.193 133.54 43.271C133.373 43.3489 133.192 43.388 133.008 43.3854H112.879Z" fill="#1E9646"/>
<path d="M174.612 17.9078C174.431 17.9107 174.251 17.8738 174.084 17.7995C173.918 17.7253 173.769 17.6155 173.648 17.4776C173.389 17.1998 173.246 16.83 173.25 16.4466V13.305C173.248 12.916 173.39 12.5405 173.648 12.2538C173.766 12.1106 173.914 11.9956 174.081 11.917C174.247 11.8385 174.429 11.7982 174.612 11.7992H194.745C194.93 11.7973 195.114 11.837 195.283 11.9156C195.451 11.9942 195.601 12.1096 195.721 12.2538C195.983 12.5375 196.126 12.915 196.119 13.305V16.4466C196.124 16.6369 196.091 16.8262 196.023 17.0033C195.954 17.1804 195.852 17.3417 195.721 17.4776C195.601 17.6123 195.456 17.7202 195.293 17.7943C195.131 17.8684 194.955 17.9071 194.777 17.9078H174.612Z" fill="#1E9646"/>
<path d="M179.332 30.6771C179.159 30.6772 178.989 30.6366 178.834 30.5585C178.679 30.4803 178.544 30.3667 178.44 30.2265C178.194 29.9324 178.063 29.5572 178.069 29.1712V25.9485C178.063 25.5638 178.195 25.1901 178.44 24.8972C178.546 24.7608 178.682 24.651 178.837 24.5765C178.991 24.5019 179.161 24.4644 179.332 24.467H194.952C195.11 24.4737 195.264 24.5179 195.403 24.5961C195.541 24.6743 195.659 24.7844 195.749 24.9175C195.983 25.2151 196.107 25.5873 196.099 25.9688V29.1915C196.108 29.5744 195.984 29.9482 195.749 30.2468C195.659 30.38 195.541 30.49 195.403 30.5682C195.264 30.6465 195.11 30.6907 194.952 30.6974L179.332 30.6771Z" fill="#1E9646"/>
<path d="M174.612 43.3652C174.428 43.3673 174.247 43.3275 174.08 43.2489C173.913 43.1702 173.766 43.0547 173.648 42.9106C173.39 42.6239 173.248 42.2484 173.25 41.8593V38.7218C173.246 38.3372 173.389 37.966 173.648 37.6868C173.77 37.5495 173.919 37.4401 174.085 37.3659C174.251 37.2918 174.431 37.2545 174.612 37.2566H194.745C194.923 37.2583 195.098 37.2974 195.261 37.3714C195.423 37.4455 195.569 37.5528 195.689 37.6868C195.82 37.8236 195.922 37.9856 195.991 38.1633C196.059 38.3411 196.092 38.531 196.087 38.7218V41.8593C196.095 42.2494 195.952 42.6268 195.689 42.9106C195.573 43.0512 195.429 43.1646 195.266 43.2431C195.103 43.3215 194.925 43.3632 194.745 43.3652H174.612Z" fill="#1E9646"/>
<path d="M166.216 12.2903C166.089 12.1464 165.933 12.0318 165.758 11.9541C165.584 11.8765 165.395 11.8375 165.205 11.8398H155.559C155.523 11.8375 155.487 11.8375 155.451 11.8398H142.499C142.309 11.8375 142.12 11.8765 141.946 11.9541C141.771 12.0318 141.615 12.1464 141.488 12.2903C141.349 12.4353 141.241 12.6068 141.168 12.795C141.096 12.9832 141.061 13.1841 141.065 13.3862V16.4385C141.063 16.6342 141.099 16.8284 141.172 17.0096C141.244 17.1908 141.352 17.3554 141.488 17.4938C141.615 17.6377 141.771 17.7523 141.946 17.83C142.12 17.9077 142.309 17.9467 142.499 17.9444H150.735V41.9202C150.735 42.1175 150.774 42.3129 150.85 42.4944C150.926 42.6758 151.037 42.8396 151.178 42.9755C151.317 43.1214 151.485 43.2366 151.67 43.3141C151.854 43.3916 152.053 43.4297 152.253 43.4261H155.419C155.614 43.4252 155.806 43.3838 155.985 43.3043C156.188 43.2289 156.373 43.1099 156.526 42.9552C156.667 42.8193 156.778 42.6555 156.854 42.4741C156.93 42.2926 156.969 42.0972 156.969 41.8999V17.9525H165.205C165.395 17.9548 165.584 17.9158 165.758 17.8381C165.933 17.7604 166.089 17.6458 166.216 17.5019C166.354 17.3644 166.463 17.2001 166.537 17.0188C166.611 16.8375 166.648 16.6429 166.647 16.4466V13.3903C166.651 13.187 166.615 12.9849 166.541 12.7959C166.467 12.607 166.357 12.4351 166.216 12.2903Z" fill="#1E9646"/>
<path d="M229.972 40.8973L223.019 30.0073C226.468 28.8262 229.2 25.8713 229.534 22.0803C229.65 20.7802 229.5 19.4697 229.093 18.2319C228.686 16.9941 228.031 15.8559 227.17 14.8894C226.309 13.9229 225.26 13.1492 224.09 12.6173C222.92 12.0853 221.655 11.8068 220.374 11.7992H205.196C205.012 11.7968 204.83 11.8364 204.663 11.9151C204.496 11.9937 204.349 12.1095 204.232 12.2538C203.974 12.5404 203.832 12.916 203.834 13.305V16.4466C203.83 16.83 203.973 17.1998 204.232 17.4776C204.353 17.6159 204.501 17.726 204.668 17.8003C204.834 17.8745 205.014 17.9112 205.196 17.9078H207.984L220.41 17.8875C220.839 17.8875 221.263 17.9736 221.66 18.1409C222.056 18.3081 222.416 18.5533 222.719 18.8623C223.022 19.1714 223.263 19.5383 223.427 19.9421C223.591 20.3459 223.676 20.7787 223.676 21.2158C223.676 21.6529 223.591 22.0857 223.427 22.4895C223.263 22.8933 223.022 23.2602 222.719 23.5692C222.416 23.8783 222.056 24.1235 221.66 24.2907C221.263 24.458 220.839 24.5441 220.41 24.5441H205.196C205.012 24.5418 204.831 24.581 204.664 24.6589C204.497 24.7368 204.35 24.8515 204.232 24.9946C203.974 25.2832 203.832 25.6598 203.834 26.0499V29.1874C203.834 29.2118 203.854 29.224 203.854 29.2443V42.2327C203.86 42.3925 203.902 42.5486 203.977 42.6893C204.051 42.8299 204.156 42.9514 204.284 43.0445C204.565 43.2799 204.919 43.4064 205.283 43.4017H208.342C208.706 43.4064 209.06 43.2799 209.342 43.0445C209.468 42.9506 209.572 42.8288 209.646 42.6882C209.72 42.5477 209.761 42.392 209.768 42.2327V30.6243L216.324 30.5918L223.998 42.5574C224.165 42.8176 224.392 43.0314 224.66 43.1795C224.927 43.3277 225.227 43.4054 225.532 43.4057H230.279C230.657 43.4057 231.016 43.1825 231.016 42.874C231 42.4072 230.578 41.8349 229.972 40.8973Z" fill="#1E9646"/>
</g>
<defs>
<clipPath id="clip0_24_1023">
<rect width="231" height="59" fill="white"/>
</clipPath>
</defs>
</svg>
